<svg width="47" height="47" viewBox="0 0 47 47" fill="none" xmlns="http://www.w3.org/2000/svg">
<path d="M47 23.5C47 29.7326 44.5241 35.7099 40.117 40.117C35.7099 44.5241 29.7326 47 23.5 47C17.2674 47 11.2901 44.5241 6.88299 40.117C2.47589 35.7099 0 29.7326 0 23.5C0 17.2674 2.47589 11.2901 6.88299 6.88299C11.2901 2.47589 17.2674 0 23.5 0C29.7326 0 35.7099 2.47589 40.117 6.88299C44.5241 11.2901 47 17.2674 47 23.5ZM18.3594 14.6875C16.3325 14.6875 14.6875 16.3325 14.6875 18.3594V28.6406C14.6875 29.6145 15.0744 30.5484 15.763 31.237C16.4516 31.9256 17.3855 32.3125 18.3594 32.3125C19.3332 32.3125 20.2672 31.9256 20.9558 31.237C21.6444 30.5484 22.0312 29.6145 22.0312 28.6406V18.3594C22.0312 16.3325 20.3862 14.6875 18.3594 14.6875ZM28.6406 14.6875C26.6138 14.6875 24.9688 16.3325 24.9688 18.3594V28.6406C24.9688 29.6145 25.3556 30.5484 26.0442 31.237C26.7328 31.9256 27.6668 32.3125 28.6406 32.3125C29.6145 32.3125 30.5484 31.9256 31.237 31.237C31.9256 30.5484 32.3125 29.6145 32.3125 28.6406V18.3594C32.3125 16.3325 30.6675 14.6875 28.6406 14.6875Z" fill="white"/>
</svg>
