<svg width="35" height="35" viewBox="0 0 35 35" fill="none" xmlns="http://www.w3.org/2000/svg">
<path d="M12.0312 7.65625C12.9015 7.65625 13.7361 8.00195 14.3514 8.61731C14.9668 9.23266 15.3125 10.0673 15.3125 10.9375V24.0625C15.3125 24.9327 14.9668 25.7673 14.3514 26.3827C13.7361 26.998 12.9015 27.3438 12.0312 27.3438C11.161 27.3438 10.3264 26.998 9.71106 26.3827C9.0957 25.7673 8.75 24.9327 8.75 24.0625V10.9375C8.75 10.0673 9.0957 9.23266 9.71106 8.61731C10.3264 8.00195 11.161 7.65625 12.0312 7.65625V7.65625ZM22.9688 7.65625C23.839 7.65625 24.6736 8.00195 25.2889 8.61731C25.9043 9.23266 26.25 10.0673 26.25 10.9375V24.0625C26.25 24.9327 25.9043 25.7673 25.2889 26.3827C24.6736 26.998 23.839 27.3437 22.9688 27.3438C22.0985 27.3437 21.2639 26.998 20.6486 26.3827C20.0332 25.7673 19.6875 24.9327 19.6875 24.0625V10.9375C19.6875 10.0673 20.0332 9.23266 20.6486 8.61731C21.2639 8.00195 22.0985 7.65625 22.9688 7.65625Z" fill="#FA9999"/>
</svg>
