<svg width="24" height="24" viewBox="0 0 24 24" fill="none" xmlns="http://www.w3.org/2000/svg">
<path d="M19.7156 8.03281V7.53281H19.2156H18.1116C16.5736 7.53281 15.3414 8.16437 14.2577 9.1064C13.1944 10.0306 12.2427 11.2825 11.2653 12.5682L11.2505 12.5877C11.2504 12.5877 11.2504 12.5878 11.2504 12.5878C9.0174 15.523 6.66088 18.5728 2.5116 18.5728H0.5V16.214H2.5104C4.0486 16.214 5.28077 15.5817 6.36441 14.6393C7.4257 13.7163 8.37589 12.467 9.35142 11.1844L9.37142 11.1581C11.6047 8.22497 13.9611 5.17281 18.1104 5.17281H19.2144H19.7144V4.67281V3.02344L23.2961 6.63841L19.7156 10.2522V8.03281ZM19.2144 16.4528H19.7144V15.9528V13.7466L23.2961 17.3616L19.7132 20.9768V19.314V18.814H19.2132H18.1092C15.7801 18.814 14.0138 17.8511 12.5162 16.4849C13.0352 15.8549 13.512 15.2297 13.9554 14.6466C13.9554 14.6465 13.9555 14.6464 13.9556 14.6462L13.9744 14.6216C15.1239 15.6996 16.4327 16.4528 18.1104 16.4528H19.2144ZM7.87904 7.54027C7.46567 8.05325 7.06117 8.57332 6.66571 9.10026C6.61814 9.16261 6.57105 9.22446 6.52433 9.28584C6.49317 9.32676 6.46217 9.36748 6.43129 9.408C5.334 8.43524 4.08522 7.77281 2.5116 7.77281H0.5V5.41401H2.5116C4.72622 5.41401 6.4289 6.28281 7.87904 7.54027Z" fill="white" stroke="white"/>
</svg>
